# xmcd
#
# Track frame offsets: 
#        150
#        12088
#        22382
#        35313
#        47817
#        59297
#        71365
#        84796
#        99271
#        112789
#        126257
#        138659
#        151001
#        164121
#        177158
#        191403
#        205664
#        217252
#        231573
#        246112
#        260751
#        276886
#        289782
#        302519
#        314753
#
# Disc length: 4368 seconds
#
# Revision: 0
# Processed by: cddbd v1.5.2PL0 Copyright (c) Steve Scherf et al.
# Submitted via: ExactAudioCopyFreeDBPlugin 1.0
#
DISCID=6b110e19
DTITLE=Lowell Fulson - Trouble Trouble - The Definitive Early Years Co
DTITLE=llection [CD1)
DYEAR=2013
DGENRE=Blues
TTITLE0=Crying Blues
TTITLE1=You're Gonna Miss Me (When I'm Gone)
TTITLE2=Fulson Blues
TTITLE3=San Francisco Blues
TTITLE4=Miss Katy Lee Blues
TTITLE5=I Want To See My Baby
TTITLE6=Scotty's Blues
TTITLE7=The Train Is Leaving
TTITLE8=Jelly, Jelly
TTITLE9=9.30 Shuffle
TTITLE10=Fulson Boogie
TTITLE11=Highway 99
TTITLE12=Trying To Find My Baby
TTITLE13=Midnight Showers Of Rain
TTITLE14=Black Cat Blues
TTITLE15=My Baby
TTITLE16=My Woman Can't Be Found
TTITLE17=Three O'Clock Blues
TTITLE18=I'm Prison Bound
TTITLE19=Night And Day
TTITLE20=Double Trouble Blues
TTITLE21=Stormin' And Rainin'
TTITLE22=Western Union Blues
TTITLE23=River Blues Part 1
TTITLE24=I Walked All Night
EXTD=
EXTT0=
EXTT1=
EXTT2=
EXTT3=
EXTT4=
EXTT5=
EXTT6=
EXTT7=
EXTT8=
EXTT9=
EXTT10=
EXTT11=
EXTT12=
EXTT13=
EXTT14=
EXTT15=
EXTT16=
EXTT17=
EXTT18=
EXTT19=
EXTT20=
EXTT21=
EXTT22=
EXTT23=
EXTT24=
PLAYORDER=
